<svg xmlns="http://www.w3.org/2000/svg" width="46" height="46" viewBox="0 0 46 46">
  <g id="Grupo_3534" data-name="Grupo 3534" transform="translate(-1124 -78)">
    <g id="Ellipse_1_copy_2" data-name="Ellipse 1 copy 2" transform="translate(1124 78)" fill="none" stroke="#fff" stroke-width="2">
      <circle cx="23" cy="23" r="23" stroke="none"/>
      <circle cx="23" cy="23" r="22" fill="none"/>
    </g>
    <g id="closed-envelope-email" transform="translate(1139 94.616)">
      <g id="Grupo_93" data-name="Grupo 93">
        <path id="Caminho_167" data-name="Caminho 167" d="M17.824,40.361a.7.7,0,0,0-.694-.694H.694A.7.7,0,0,0,0,40.361V53.556a.7.7,0,0,0,.694.694H17.13a.7.7,0,0,0,.694-.694ZM1.389,52.861V44.632l6.979,6.007a.63.63,0,0,0,.44.162.81.81,0,0,0,.475-.162l7.153-5.984v8.206ZM16.435,41.056V42.85c-.116.012-.058.023-.069.023L8.819,49.2,1.412,42.838c-.012-.012-.023-.023-.023-.035V41.056Z" transform="translate(0 -39.667)" fill="#fff"/>
      </g>
    </g>
  </g>
</svg>
