<svg xmlns="http://www.w3.org/2000/svg" width="46" height="46" viewBox="0 0 46 46">
  <g id="Icon" transform="translate(-1124 -78)">
    <g id="Ellipse_1_copy_2" data-name="Ellipse 1 copy 2" transform="translate(1124 78)" fill="none" stroke="#fff" stroke-width="2">
      <circle cx="23" cy="23" r="23" stroke="none"/>
      <circle cx="23" cy="23" r="22" fill="none"/>
    </g>
    <g id="telephone-call-receiver" transform="translate(1137.869 92.082)">
      <g id="Grupo_16" data-name="Grupo 16" transform="translate(0)">
        <path id="Caminho_26" data-name="Caminho 26" d="M1.739,16.616a1.213,1.213,0,0,0,.126.1l.629.389c.023.011.057.034.08.046a7.6,7.6,0,0,0,3.076.64A6.442,6.442,0,0,0,10.27,16l5.935-5.935A7,7,0,0,0,17.314,2.39a.462.462,0,0,0-.057-.1l-.4-.606c-.023-.034-.057-.069-.08-.1L15.713.515A1.75,1.75,0,0,0,14.478,0a1.611,1.611,0,0,0-1.132.469L10.258,3.557a1.681,1.681,0,0,0,.034,2.379L11.5,7.147,7.377,11.276,6.141,10.041a1.555,1.555,0,0,0-1.178-.5,1.674,1.674,0,0,0-1.166.48L.709,13.106a1.826,1.826,0,0,0-.515,1.189,1.653,1.653,0,0,0,.469,1.247Zm-.057-2.539L4.769,10.99a.3.3,0,0,1,.423.023l1.715,1.715a.7.7,0,0,0,.972,0l5.089-5.089a.706.706,0,0,0,.206-.48.658.658,0,0,0-.206-.48L11.276,4.963a.324.324,0,0,1-.034-.446L14.33,1.43a.208.208,0,0,1,.16-.069.394.394,0,0,1,.263.114l1.006,1.006.332.5a5.566,5.566,0,0,1-.846,6.084L9.309,15.027a5.087,5.087,0,0,1-3.66,1.4,6.2,6.2,0,0,1-2.47-.5l-.526-.32L1.636,14.581a.3.3,0,0,1-.069-.217A.541.541,0,0,1,1.681,14.078Z" transform="translate(-0.193)" fill="#fff"/>
      </g>
    </g>
  </g>
</svg>
