<svg xmlns="http://www.w3.org/2000/svg" width="22.44" height="22.292" viewBox="0 0 22.44 22.292">
  <g id="Instagram" transform="translate(-14.509 -12.646)">
    <path id="instagram-2" data-name="instagram" d="M6.605,22.292A6.624,6.624,0,0,1,1.9,20.539,6.446,6.446,0,0,1,0,15.729V6.517A6.177,6.177,0,0,1,6.56,0h9.32a6.465,6.465,0,0,1,4.75,1.842,6.421,6.421,0,0,1,1.81,4.675v9.258a6.408,6.408,0,0,1-1.856,4.763,6.7,6.7,0,0,1-4.75,1.753ZM3.3,3.235A4.469,4.469,0,0,0,2.081,6.517v9.212A4.5,4.5,0,0,0,3.3,19.057a4.7,4.7,0,0,0,3.3,1.169h9.229a4.7,4.7,0,0,0,3.3-1.169,4.327,4.327,0,0,0,1.222-3.281h.09V6.517A4.623,4.623,0,0,0,19.228,3.28a4.528,4.528,0,0,0-3.3-1.213H6.605A4.619,4.619,0,0,0,3.3,3.235ZM5.429,11.1a5.791,5.791,0,1,1,5.791,5.753A5.783,5.783,0,0,1,5.429,11.1Zm2.081,0a3.71,3.71,0,1,0,3.71-3.685A3.714,3.714,0,0,0,7.51,11.1Zm8.417-5.889a1.311,1.311,0,1,1,1.312,1.3A1.307,1.307,0,0,1,15.927,5.212Z" transform="translate(14.509 12.646)" fill="#fff"/>
  </g>
</svg>
