<svg xmlns="http://www.w3.org/2000/svg" width="31.939" height="32.077" viewBox="0 0 31.939 32.077"><g transform="translate(0 0)"><path d="M-309.949-148.91c.193-.708.379-1.4.567-2.084q.663-2.424,1.327-4.848c.108-.4.221-.79.322-1.187a.33.33,0,0,0-.028-.221A15.913,15.913,0,0,1-309.5-161.9a15.853,15.853,0,0,1-.312-3.67,15.774,15.774,0,0,1,.7-4.2,15.732,15.732,0,0,1,2.544-4.934,15.939,15.939,0,0,1,4.9-4.258,15.687,15.687,0,0,1,4.649-1.721,15.9,15.9,0,0,1,3.978-.279,15.705,15.705,0,0,1,6.373,1.712,15.752,15.752,0,0,1,3.639,2.572,15.916,15.916,0,0,1,3.235,4.261,15.673,15.673,0,0,1,1.468,4.154,15.854,15.854,0,0,1,.312,3.656,15.765,15.765,0,0,1-1.333,5.908,15.722,15.722,0,0,1-2.331,3.766,15.943,15.943,0,0,1-5.462,4.24,15.59,15.59,0,0,1-3.933,1.263,15.85,15.85,0,0,1-3.69.226,16,16,0,0,1-4.441-.882,16.33,16.33,0,0,1-2.206-.969.337.337,0,0,0-.222-.027q-3.175.826-6.347,1.661-.927.243-1.854.49C-309.865-148.924-309.9-148.92-309.949-148.91Zm3.821-3.79a.321.321,0,0,0,.057,0q2.4-.627,4.8-1.258a.325.325,0,0,1,.282.043,14.23,14.23,0,0,0,2.455,1.213,13.278,13.278,0,0,0,4.194.828,13.051,13.051,0,0,0,2.919-.232,12.973,12.973,0,0,0,3.811-1.365,13.222,13.222,0,0,0,3.989-3.335,13.008,13.008,0,0,0,1.909-3.2,13.1,13.1,0,0,0,.995-5.737,13.143,13.143,0,0,0-.305-2.272,13.031,13.031,0,0,0-3.131-5.98,13.124,13.124,0,0,0-4.5-3.22A13.174,13.174,0,0,0-293.6-178.3a12.874,12.874,0,0,0-3.563.4,13.113,13.113,0,0,0-5.755,3.142,13.137,13.137,0,0,0-3.182,4.543,13.087,13.087,0,0,0-1,4.181,13.145,13.145,0,0,0,.15,3.124,12.758,12.758,0,0,0,1.194,3.689c.269.531.594,1.033.889,1.551a.291.291,0,0,1,.044.193q-.568,2.1-1.147,4.2Z" transform="translate(309.949 180.987)" fill="#e4283d"/><path d="M-8.222,140.222c.135,0,.271,0,.406,0a.542.542,0,0,1,.5.219,5.915,5.915,0,0,1,.383.681c.354.726.7,1.457,1.048,2.184a.572.572,0,0,1-.017.552A4.812,4.812,0,0,1-6.892,145c-.254.244-.279.378-.085.661a9.907,9.907,0,0,0,2.21,2.347,10.285,10.285,0,0,0,2.748,1.477c.125.045.246.1.372.14a.544.544,0,0,0,.6-.125q.523-.541,1.037-1.089c.107-.114.2-.237.31-.349a.456.456,0,0,1,.484-.114c.328.1.655.215.97.345.763.315,1.519.643,2.278.965.019.008.037.017.057.024a.456.456,0,0,1,.337.471,3.781,3.781,0,0,1-.232,1.181,1.847,1.847,0,0,1-.729.871,4.863,4.863,0,0,1-1.482.725,5.006,5.006,0,0,1-1.579.146,9.493,9.493,0,0,1-2.568-.6A13.235,13.235,0,0,1-5.915,150.2,17.187,17.187,0,0,1-8.28,148.15a17.816,17.816,0,0,1-1.707-2.028,5.34,5.34,0,0,1-.959-2.1,3.318,3.318,0,0,1,.958-3.109,4.653,4.653,0,0,1,.566-.489,1.337,1.337,0,0,1,.755-.221c.148,0,.3,0,.445,0C-8.222,140.211-8.222,140.217-8.222,140.222Z" transform="translate(19.965 -130.453)" fill="#e4283d"/></g></svg>