<svg xmlns="http://www.w3.org/2000/svg" width="29.666" height="21.883" viewBox="0 0 29.666 21.883">
  <g id="Icon_youtube_preto" transform="translate(-13.208 -14.766)">
    <g id="h2Xiaw" transform="translate(13.305 14.869)">
      <g id="Group_3292" data-name="Group 3292" transform="translate(0)">
        <g id="Group_3312" data-name="Group 3312">
          <path id="Path_2512" data-name="Path 2512" d="M180.613,324.865c3.216.092,6.432.174,9.648.284a15.166,15.166,0,0,1,2.064.23c1.583.274,2.341,1.118,2.622,3a24.533,24.533,0,0,1,.333,3.5c.013,3.178-.043,6.355-.107,9.533a10.178,10.178,0,0,1-.28,2c-.444,1.986-1.258,2.766-3.294,2.829q-7.593.236-15.191.306c-2.231.017-4.464-.172-6.694-.289a7.389,7.389,0,0,1-1.3-.227,2.35,2.35,0,0,1-1.851-1.721,15.314,15.314,0,0,1-.552-2.937,78.086,78.086,0,0,1,.092-12.238,7.436,7.436,0,0,1,.141-.854c.459-2.151,1.3-2.894,3.514-3.025,1.807-.107,3.616-.2,5.425-.242S178.8,325,180.612,325Zm-1.127,1.093c-3.065.128-6.377.248-9.686.414-1.649.083-2.175.564-2.464,2.115a10.848,10.848,0,0,0-.229,1.773c-.056,3.1-.126,6.2-.095,9.3a29.028,29.028,0,0,0,.424,3.838,1.775,1.775,0,0,0,1.715,1.655c.517.051,1.03.173,1.546.183,4.47.086,8.94.2,13.409.206,2.482,0,4.966-.171,7.447-.318,1.5-.089,2-.575,2.278-2.04a9.8,9.8,0,0,0,.225-1.657c.056-3.255.128-6.51.1-9.764a24.7,24.7,0,0,0-.45-3.717,1.683,1.683,0,0,0-1.615-1.477c-.593-.067-1.183-.187-1.777-.206C186.787,326.153,183.262,326.063,179.486,325.958Z" transform="translate(-165.812 -324.865)" fill="#2c2c30" stroke="#2c2c30" stroke-width="0.2"/>
          <path id="Path_2513" data-name="Path 2513" d="M259.152,380.76c0-1.405,0-2.811,0-4.216,0-.752.358-.976,1.028-.628q4.1,2.125,8.176,4.277a.846.846,0,0,1,.435.582.873.873,0,0,1-.454.573q-4.078,2.158-8.177,4.275c-.665.345-1.006.119-1.008-.648C259.149,383.57,259.152,382.165,259.152,380.76Zm1.148-3.525v7.06l6.771-3.531Z" transform="translate(-248.356 -369.87)" fill="#2c2c30" stroke="#2c2c30" stroke-width="0.2"/>
          <path id="Path_2533" data-name="Path 2533" d="M25.214,14.06l-8.086,4.253V9.827l7.5,4.233Z" transform="translate(-5.612 -3.22)" fill="#2c2c30"/>
        </g>
      </g>
    </g>
  </g>
</svg>
